<?xml version="1.0" encoding="utf-8"?>
<!-- Generator: Adobe Illustrator 24.0.3, SVG Export Plug-In . SVG Version: 6.00 Build 0)  -->
<svg version="1.1" id="Layer_1" xmlns="http://www.w3.org/2000/svg" xmlns:xlink="http://www.w3.org/1999/xlink" x="0px" y="0px"
	 viewBox="0 0 18 18" style="enable-background:new 0 0 18 18;" xml:space="preserve">
<style type="text/css">
	.st0{filter:url(#Adobe_OpacityMaskFilter);}
	.st1{fill-rule:evenodd;clip-rule:evenodd;fill:#FFFFFF;}
	.st2{mask:url(#mask-2_1_);}
	.st3{fill:#2E4068;}
</style>
<title>Icon/Carousel</title>
<desc>Created with Sketch.</desc>
<g id="Page-1">
	<g id="_x32_.0-Slots" transform="translate(-300.000000, -95.000000)">
		<g id="Navigation">
			<g id="Header">
				<g id="Carousel_x2F_Top" transform="translate(0.000000, 82.000000)">
					<g id="List" transform="translate(12.000000, 1.000000)">
						<g id="Stacked-Group-Copy-3" transform="translate(264.000000, 0.000000)">
							<g id="_x30_1">
								<g id="Icon" transform="translate(18.000000, 6.000000)">
									<g id="Icon_x2F_Carousel" transform="translate(6.000000, 6.000000)">
										<g id="Combined-Shape">
										</g>
										<defs>
											<filter id="Adobe_OpacityMaskFilter" filterUnits="userSpaceOnUse" x="0" y="0" width="18" height="18">
												<feColorMatrix  type="matrix" values="1 0 0 0 0  0 1 0 0 0  0 0 1 0 0  0 0 0 1 0"/>
											</filter>
										</defs>
										<mask maskUnits="userSpaceOnUse" x="0" y="0" width="18" height="18" id="mask-2_1_">
											<g class="st0">
												<path id="path-1_1_" class="st1" d="M6.3,2.1l0,12.8c0,0.5,0.6,1.1,1.1,1.1l0,0H11c0,0-0.4,0.9-0.9,0.9l0,0h-9
													C0.6,17,0,16.3,0,15.8l0,0V2.8c0-0.5,0.6-0.7,1.1-0.7l0,0H6.3z M17.1,0.3c0.5,0,0.9,0.4,0.9,0.9l0,0v13
													c0,0.5-0.4,0.9-0.9,0.9l0,0h-9c-0.5,0-0.9-0.4-0.9-0.9l0,0v-13c0-0.5,0.4-0.9,0.9-0.9l0,0H17.1z M4.7,3.7
													C4.3,3.7,4,4,3.8,4.4C3.7,4,3.3,3.7,3,3.7C2.4,3.7,2,4.1,2,4.7c0,1.1,1.1,1.4,1.8,2.6c0.7-1.1,1.8-1.5,1.8-2.6
													C5.6,4.1,5.2,3.7,4.7,3.7z M11.9,1.9c-0.4,0-0.7,0.3-0.9,0.7c-0.2-0.3-0.5-0.7-0.9-0.7c-0.5,0-0.9,0.5-0.9,1
													c0,1.1,1.1,1.4,1.8,2.6c0.7-1.1,1.8-1.5,1.8-2.6C12.8,2.3,12.4,1.9,11.9,1.9z"/>
											</g>
										</mask>
										<g id="Colour_x2F_Text_x2F_Dark-Support" class="st2">
											<rect y="0" class="st3" width="18" height="18"/>
										</g>
									</g>
								</g>
							</g>
						</g>
					</g>
				</g>
			</g>
		</g>
	</g>
</g>
</svg>
