<?xml version="1.0" encoding="utf-8"?>
<!-- Generator: Adobe Illustrator 23.1.1, SVG Export Plug-In . SVG Version: 6.00 Build 0)  -->
<svg version="1.1" id="Layer_1" xmlns="http://www.w3.org/2000/svg" xmlns:xlink="http://www.w3.org/1999/xlink" x="0px" y="0px"
	 viewBox="0 0 18 18" style="enable-background:new 0 0 18 18;" xml:space="preserve">
<style type="text/css">
	.st0{fill:#333366;}
	.st1{filter:url(#Adobe_OpacityMaskFilter);}
	.st2{fill-rule:evenodd;clip-rule:evenodd;fill:#333366;}
	.st3{mask:url(#mask-2_1_);}
</style>
<title>Icon/Carousel</title>
<desc>Created with Sketch.</desc>
<g transform="translate(0.000000, 82.000000)">
	<g id="List" transform="translate(12.000000, 1.000000)">
		<g>
			<g id="Padding-Group-2">
				<g id="Stacked-Group" transform="translate(4.000000, 6.000000)">
					<g id="Icon" transform="translate(14.000000, 0.000000)">
						<g transform="translate(6.000000, 6.000000)">
							<g transform="translate(0.000000, -0.000000)">
								<g id="Mask">
									<path class="st0" d="M-18.5-80.7c0.2,0,0.4,0.4,0.4,0.9s-0.2,0.9-0.4,0.9l0,0h-17.1c-0.2,0-0.4-0.4-0.4-0.9
										s0.2-0.9,0.4-0.9l0,0H-18.5z M-18.5-85.6c0.2,0,0.4,0.4,0.4,0.9s-0.2,0.9-0.4,0.9l0,0h-17.1c-0.2,0-0.4-0.4-0.4-0.9
										s0.2-0.9,0.4-0.9l0,0H-18.5z M-32.2-95c0.1,0,0.2,0,0.2,0.1l0,0l0.8,2.5h2.6c0.1,0,0.2,0.1,0.2,0.2c0,0.1,0,0.2-0.1,0.3
										l0,0l-2.1,1.6l0.8,2.5c0,0.1,0,0.2-0.1,0.2c0,0-0.1,0-0.1,0c0,0-0.1,0-0.1,0l0,0l-2.1-1.6l-2.1,1.6c-0.1,0.1-0.2,0.1-0.2,0
										c-0.1-0.1-0.1-0.2-0.1-0.2l0,0l0.8-2.5l-2.1-1.6c-0.1-0.1-0.1-0.2-0.1-0.3c0-0.1,0.1-0.2,0.2-0.2l0,0h2.6l0.8-2.5
										C-32.4-95-32.3-95-32.2-95z M-18.5-91.5c0.2,0,0.4,0.4,0.4,0.9s-0.2,0.9-0.4,0.9l0,0h-8.1c-0.2,0-0.4-0.4-0.4-0.9
										s0.2-0.9,0.4-0.9l0,0H-18.5z"/>
								</g>
								<defs>
									<filter id="Adobe_OpacityMaskFilter" filterUnits="userSpaceOnUse" x="-36" y="-95" width="18" height="18">
										<feColorMatrix  type="matrix" values="1 0 0 0 0  0 1 0 0 0  0 0 1 0 0  0 0 0 1 0"/>
									</filter>
								</defs>
								<mask maskUnits="userSpaceOnUse" x="-36" y="-95" width="18" height="18" id="mask-2_1_">
									<g class="st1">
										<path id="path-1_1_" class="st2" d="M-18.5-80.7c0.2,0,0.4,0.4,0.4,0.9s-0.2,0.9-0.4,0.9l0,0h-17.1
											c-0.2,0-0.4-0.4-0.4-0.9s0.2-0.9,0.4-0.9l0,0H-18.5z M-18.5-85.6c0.2,0,0.4,0.4,0.4,0.9s-0.2,0.9-0.4,0.9l0,0h-17.1
											c-0.2,0-0.4-0.4-0.4-0.9s0.2-0.9,0.4-0.9l0,0H-18.5z M-32.2-95c0.1,0,0.2,0,0.2,0.1l0,0l0.8,2.5h2.6
											c0.1,0,0.2,0.1,0.2,0.2c0,0.1,0,0.2-0.1,0.3l0,0l-2.1,1.6l0.8,2.5c0,0.1,0,0.2-0.1,0.2c0,0-0.1,0-0.1,0c0,0-0.1,0-0.1,0
											l0,0l-2.1-1.6l-2.1,1.6c-0.1,0.1-0.2,0.1-0.2,0c-0.1-0.1-0.1-0.2-0.1-0.2l0,0l0.8-2.5l-2.1-1.6c-0.1-0.1-0.1-0.2-0.1-0.3
											c0-0.1,0.1-0.2,0.2-0.2l0,0h2.6l0.8-2.5C-32.4-95-32.3-95-32.2-95z M-18.5-91.5c0.2,0,0.4,0.4,0.4,0.9s-0.2,0.9-0.4,0.9
											l0,0h-8.1c-0.2,0-0.4-0.4-0.4-0.9s0.2-0.9,0.4-0.9l0,0H-18.5z"/>
									</g>
								</mask>
								<g class="st3">
									<rect x="-36" y="-95" class="st0" width="18" height="18"/>
								</g>
							</g>
						</g>
					</g>
				</g>
			</g>
		</g>
	</g>
</g>
</svg>
