<?xml version="1.0" encoding="UTF-8"?>
<svg width="18px" height="18px" viewBox="0 0 18 18" version="1.1" xmlns="http://www.w3.org/2000/svg" xmlns:xlink="http://www.w3.org/1999/xlink">
    <!-- Generator: Sketch 62 (91390) - https://sketch.com -->
    <title>Icon/Carousel</title>
    <desc>Created with Sketch.</desc>
    <defs>
        <path d="M17.2089844,16.4179688 C17.6458359,16.4179688 18,16.7721328 18,17.2089844 C18,17.6458359 17.6458359,18 17.2089844,18 L17.2089844,18 L12.4277344,18 C11.9908828,18 11.6367187,17.6458359 11.6367187,17.2089844 C11.6367187,16.7721328 11.9908828,16.4179688 12.4277344,16.4179688 L12.4277344,16.4179688 Z M9.55124297,5.34373594 C10.133782,5.34373594 10.6059305,5.81591953 10.6059305,6.39842344 C10.6059305,6.64522031 10.5082312,6.86252109 10.3662,7.04178281 C11.8659305,8.00822813 13.0141336,9.54881016 13.5207352,11.2883063 L13.5207352,11.2883063 L12.4277273,11.2883063 C11.6040164,11.2883063 10.9335867,11.9587711 10.9335867,12.7824469 C10.9335867,13.227525 11.1290555,13.6276031 11.438782,13.9014703 C11.1290555,14.1756891 10.9335867,14.5757672 10.9335867,15.0208453 C10.9335867,15.4525641 11.1178055,15.8420953 11.4113602,16.1149078 C11.1178055,16.3877203 10.9335867,16.7772516 10.9335867,17.2089703 C10.9335867,17.2874039 10.9395633,17.3643609 10.9515164,17.4392438 C9.73651641,17.8888922 8.31163359,17.9926031 7.05303984,17.9996695 L7.05303984,17.9996695 L6.75210234,17.9996695 C3.82534453,17.9838141 -7.03125001e-06,17.4417047 -7.03125001e-06,13.2538922 C-7.03125001e-06,10.7490094 1.39182891,8.36084531 3.43897734,7.04178281 C3.29729766,6.86252109 3.19921172,6.64522031 3.19921172,6.39842344 C3.19921172,5.81591953 3.67136016,5.34373594 4.25389922,5.34373594 L4.25389922,5.34373594 Z M6.89061797,8.50779844 C6.59917266,8.50779844 6.36327422,8.74369688 6.36327422,9.03514219 L6.36327422,9.03514219 L6.36327422,9.81248203 C5.74803984,10.0293961 5.30296172,10.6101422 5.30296172,11.2988531 C5.30296172,12.1714312 6.01241484,12.8808844 6.88499297,12.8808844 C7.17573516,12.8808844 7.41233672,13.1174859 7.41233672,13.4082281 C7.41233672,13.6993219 7.17573516,13.9355719 6.88499297,13.9355719 C6.59389922,13.9355719 6.35764922,13.6993219 6.35764922,13.4082281 C6.35764922,13.1171695 6.12175078,12.8808844 5.83030547,12.8808844 C5.53886016,12.8808844 5.30296172,13.1171695 5.30296172,13.4082281 C5.30296172,14.0969742 5.74803984,14.6784234 6.36327422,14.8949859 L6.36327422,14.8949859 L6.36327422,15.3632672 C6.36327422,15.6547125 6.59917266,15.8906109 6.89061797,15.8906109 C7.18206328,15.8906109 7.41796172,15.6547125 7.41796172,15.3632672 L7.41796172,15.3632672 L7.41796172,14.8914703 C8.02757109,14.6714273 8.46702422,14.0927555 8.46702422,13.4082281 C8.46702422,12.5360016 7.75721953,11.8261969 6.88499297,11.8261969 C6.59389922,11.8261969 6.35764922,11.5899469 6.35764922,11.2988531 C6.35764922,11.0081109 6.59389922,10.7715094 6.88499297,10.7715094 C7.17573516,10.7715094 7.41233672,11.0081109 7.41233672,11.2988531 C7.41233672,11.5906852 7.64823516,11.8261969 7.93968047,11.8261969 C8.23112578,11.8261969 8.46702422,11.5906852 8.46702422,11.2988531 C8.46702422,10.6147125 8.02757109,10.0356891 7.41796172,9.8159625 L7.41796172,9.8159625 L7.41796172,9.03514219 C7.41796172,8.74369688 7.18206328,8.50779844 6.89061797,8.50779844 Z M17.2089844,14.2296996 C17.6458359,14.2296996 18,14.5838637 18,15.0207152 C18,15.4575668 17.6458359,15.8117309 17.2089844,15.8117309 L17.2089844,15.8117309 L12.4277344,15.8117309 C11.9908828,15.8117309 11.6367187,15.4575668 11.6367187,15.0207152 C11.6367187,14.5838637 11.9908828,14.2296996 12.4277344,14.2296996 L12.4277344,14.2296996 Z M17.2089844,11.9916105 C17.6458359,11.9916105 18,12.3457746 18,12.7826262 C18,13.2194777 17.6458359,13.5736418 17.2089844,13.5736418 L17.2089844,13.5736418 L12.4277344,13.5736418 C11.9908828,13.5736418 11.6367187,13.2194777 11.6367187,12.7826262 C11.6367187,12.3457746 11.9908828,11.9916105 12.4277344,11.9916105 L12.4277344,11.9916105 Z M6.89063555,0 C7.57727227,0 8.15706914,0.442195312 8.37556523,1.0546875 L8.37556523,1.0546875 L10.054698,1.0546875 C10.2241512,1.0546875 10.3833035,1.13600391 10.4826199,1.27360547 C10.5814793,1.41106641 10.6087957,1.58821875 10.5546902,1.74888281 L10.5546902,1.74888281 L9.7315418,4.2890625 L4.04983477,4.2890625 L3.2265457,1.74888281 C3.17244023,1.58821875 3.19975664,1.41106641 3.29865117,1.27360547 C3.39793242,1.13600391 3.55708477,1.0546875 3.72657305,1.0546875 L3.72657305,1.0546875 L5.39867461,1.0546875 C5.6166082,0.440824219 6.20315508,0 6.89063555,0 Z" id="path-1"></path>
    </defs>
    <g id="Page-1" stroke="none" stroke-width="1" fill="none" fill-rule="evenodd">
        <g id="2.0-Slots" transform="translate(-168.000000, -95.000000)">
            <g id="Navigation">
                <g id="Header">
                    <g id="Carousel/Top" transform="translate(0.000000, 82.000000)">
                        <g id="List" transform="translate(12.000000, 1.000000)">
                            <g id="Stacked-Group-Copy" transform="translate(132.000000, 0.000000)">
                                <g id="01">
                                    <g id="Padding-Group-2">
                                        <g id="Stacked-Group" transform="translate(4.000000, 6.000000)">
                                            <g id="Icon" transform="translate(14.000000, 0.000000)">
                                                <g id="Icon/Carousel" transform="translate(6.000000, 6.000000)">
                                                    <mask id="mask-2" fill="white">
                                                        <use xlink:href="#path-1"></use>
                                                    </mask>
                                                    <g id="Mask"></g>
                                                    <g id="Colour/Text/Dark-Support" mask="url(#mask-2)" fill="#99ACCC" fill-rule="nonzero">
                                                        <g transform="translate(0.000000, 0.000000)">
                                                            <rect x="0" y="0" width="18" height="18"></rect>
                                                        </g>
                                                    </g>
                                                </g>
                                            </g>
                                        </g>
                                    </g>
                                </g>
                            </g>
                        </g>
                    </g>
                </g>
            </g>
        </g>
    </g>
</svg>