<?xml version="1.0" encoding="utf-8"?>
<!-- Generator: Adobe Illustrator 23.1.1, SVG Export Plug-In . SVG Version: 6.00 Build 0)  -->
<svg version="1.1" id="Layer_1" xmlns="http://www.w3.org/2000/svg" xmlns:xlink="http://www.w3.org/1999/xlink" x="0px" y="0px"
	 viewBox="0 0 18 18" style="enable-background:new 0 0 18 18;" xml:space="preserve">
<style type="text/css">
	.st0{filter:url(#Adobe_OpacityMaskFilter);}
	.st1{fill-rule:evenodd;clip-rule:evenodd;fill:#FFFFFF;}
	.st2{mask:url(#mask-2_1_);}
	.st3{fill:#FFFFFF;}
</style>
<title>Icon/Carousel</title>
<desc>Created with Sketch.</desc>
<g id="Page-1">
	<g transform="translate(-168.000000, -95.000000)">
		<g id="Navigation">
			<g id="Header">
				<g transform="translate(0.000000, 82.000000)">
					<g id="List" transform="translate(12.000000, 1.000000)">
						<g id="Stacked-Group-Copy" transform="translate(132.000000, 0.000000)">
							<g>
								<g id="Padding-Group-2">
									<g id="Stacked-Group" transform="translate(4.000000, 6.000000)">
										<g id="Icon" transform="translate(14.000000, 0.000000)">
											<g transform="translate(6.000000, 6.000000)">
												<g id="Mask">
												</g>
												<defs>
													<filter id="Adobe_OpacityMaskFilter" filterUnits="userSpaceOnUse" x="0" y="0" width="18" height="18">
														<feColorMatrix  type="matrix" values="1 0 0 0 0  0 1 0 0 0  0 0 1 0 0  0 0 0 1 0"/>
													</filter>
												</defs>
												<mask maskUnits="userSpaceOnUse" x="0" y="0" width="18" height="18" id="mask-2_1_">
													<g class="st0">
														<path id="path-1_1_" class="st1" d="M17.2,16.4c0.4,0,0.8,0.4,0.8,0.8S17.6,18,17.2,18l0,0h-4.8
															c-0.4,0-0.8-0.4-0.8-0.8s0.4-0.8,0.8-0.8l0,0H17.2z M9.6,5.3c0.6,0,1.1,0.5,1.1,1.1c0,0.2-0.1,0.5-0.2,0.6
															c1.5,1,2.6,2.5,3.2,4.2l0,0h-1.1c-0.8,0-1.5,0.7-1.5,1.5c0,0.4,0.2,0.8,0.5,1.1c-0.3,0.3-0.5,0.7-0.5,1.1
															c0,0.4,0.2,0.8,0.5,1.1c-0.3,0.3-0.5,0.7-0.5,1.1c0,0.1,0,0.2,0,0.2C9.7,17.9,8.3,18,7.1,18l0,0H6.8
															C3.8,18,0,17.4,0,13.3C0,10.7,1.4,8.4,3.4,7C3.3,6.9,3.2,6.6,3.2,6.4c0-0.6,0.5-1.1,1.1-1.1l0,0H9.6z M6.9,8.5
															C6.6,8.5,6.4,8.7,6.4,9l0,0v0.8c-0.6,0.2-1.1,0.8-1.1,1.5c0,0.9,0.7,1.6,1.6,1.6c0.3,0,0.5,0.2,0.5,0.5
															c0,0.3-0.2,0.5-0.5,0.5c-0.3,0-0.5-0.2-0.5-0.5c0-0.3-0.2-0.5-0.5-0.5s-0.5,0.2-0.5,0.5c0,0.7,0.4,1.3,1.1,1.5l0,0
															v0.5c0,0.3,0.2,0.5,0.5,0.5s0.5-0.2,0.5-0.5l0,0v-0.5c0.6-0.2,1-0.8,1-1.5c0-0.9-0.7-1.6-1.6-1.6
															c-0.3,0-0.5-0.2-0.5-0.5c0-0.3,0.2-0.5,0.5-0.5c0.3,0,0.5,0.2,0.5,0.5c0,0.3,0.2,0.5,0.5,0.5s0.5-0.2,0.5-0.5
															c0-0.7-0.4-1.3-1-1.5l0,0V9C7.4,8.7,7.2,8.5,6.9,8.5z M17.2,14.2c0.4,0,0.8,0.4,0.8,0.8c0,0.4-0.4,0.8-0.8,0.8l0,0
															h-4.8c-0.4,0-0.8-0.4-0.8-0.8c0-0.4,0.4-0.8,0.8-0.8l0,0H17.2z M17.2,12c0.4,0,0.8,0.4,0.8,0.8s-0.4,0.8-0.8,0.8l0,0
															h-4.8c-0.4,0-0.8-0.4-0.8-0.8S12,12,12.4,12l0,0H17.2z M6.9,0c0.7,0,1.3,0.4,1.5,1.1l0,0h1.7c0.2,0,0.3,0.1,0.4,0.2
															c0.1,0.1,0.1,0.3,0.1,0.5l0,0L9.7,4.3H4L3.2,1.7c-0.1-0.2,0-0.3,0.1-0.5c0.1-0.1,0.3-0.2,0.4-0.2l0,0h1.7
															C5.6,0.4,6.2,0,6.9,0z"/>
													</g>
												</mask>
												<g class="st2">
													<g transform="translate(0.000000, 0.000000)">
														<rect y="0" class="st3" width="18" height="18"/>
													</g>
												</g>
											</g>
										</g>
									</g>
								</g>
							</g>
						</g>
					</g>
				</g>
			</g>
		</g>
	</g>
</g>
</svg>
