<?xml version="1.0" encoding="UTF-8"?>
<svg width="18px" height="18px" viewBox="0 0 18 18" version="1.1" xmlns="http://www.w3.org/2000/svg" xmlns:xlink="http://www.w3.org/1999/xlink">
    <!-- Generator: Sketch 62 (91390) - https://sketch.com -->
    <title>Icon/Carousel</title>
    <desc>Created with Sketch.</desc>
    <defs>
        <path d="M17.545176,14.25 C17.778024,14.25 17.966664,14.6697618 17.966664,15.1875 C17.966664,15.7052382 17.778024,16.125 17.545176,16.125 L17.545176,16.125 L0.443784,16.125 C0.210936,16.125 0.022296,15.7052382 0.022296,15.1875 C0.022296,14.6697618 0.210936,14.25 0.443784,14.25 L0.443784,14.25 Z M17.545176,9.375 C17.778024,9.375 17.966664,9.7945849 17.966664,10.3125 C17.966664,10.8304151 17.778024,11.25 17.545176,11.25 L17.545176,11.25 L0.443784,11.25 C0.210936,11.25 0.022296,10.8300948 0.022296,10.3121797 C0.022296,9.79426461 0.210792,9.375 0.443784,9.375 L0.443784,9.375 Z M3.78322932,-4.09272616e-12 C3.87340921,-4.09272616e-12 3.95314273,0.0278586711 3.98107078,0.117452157 L3.98107078,0.117452157 L4.77030472,2.62406395 L7.32518841,2.62406395 C7.4153683,2.62406395 7.49531501,2.72903542 7.52302987,2.81862891 C7.55074473,2.90822239 7.52047158,3.02812611 7.44756018,3.08339772 L7.44756018,3.08339772 L5.38067121,4.66376441 L6.17011833,7.20982408 C6.19783319,7.29941757 6.16734684,7.40015452 6.09464863,7.455649 C6.05776655,7.48373054 6.01491511,7.5 5.97206368,7.5 C5.92921224,7.5 5.8863608,7.4861821 5.84969191,7.45832343 L5.84969191,7.45832343 L3.78301613,5.88865446 L1.71612716,7.45832343 C1.64300257,7.5138179 1.54472141,7.5138179 1.47159682,7.45832343 C1.39868542,7.40305182 1.36819907,7.3049893 1.39612712,7.21517295 L1.39612712,7.21517295 L2.18557425,4.67513075 L0.118898468,3.10546179 C0.0459870672,3.05041305 0.0155007214,2.90822239 0.0434287725,2.81862891 C0.0711436323,2.72903542 0.151090343,2.62406395 0.241270234,2.62406395 L0.241270234,2.62406395 L2.79572755,2.62406395 L3.58538786,0.128595626 C3.61310272,0.0390021395 3.69304943,-4.09272616e-12 3.78322932,-4.09272616e-12 Z M17.545176,3.525 C17.778024,3.525 17.966664,3.94476178 17.966664,4.4625 C17.966664,4.98023822 17.778024,5.4 17.545176,5.4 L17.545176,5.4 L9.443784,5.4 C9.210936,5.4 9.022296,4.98023822 9.022296,4.4625 C9.022296,3.94476178 9.210936,3.525 9.443784,3.525 L9.443784,3.525 Z" id="path-1"></path>
    </defs>
    <g id="Page-1" stroke="none" stroke-width="1" fill="none" fill-rule="evenodd">
        <g id="2.0-Slots" transform="translate(-36.000000, -95.000000)">
            <g id="Navigation">
                <g id="Header">
                    <g id="Carousel/Top" transform="translate(0.000000, 82.000000)">
                        <g id="List" transform="translate(12.000000, 1.000000)">
                            <g id="Stacked-Group">
                                <g id="01">
                                    <g id="Padding-Group-2">
                                        <g id="Stacked-Group" transform="translate(4.000000, 6.000000)">
                                            <g id="Icon" transform="translate(14.000000, 0.000000)">
                                                <g id="Icon/Carousel" transform="translate(6.000000, 6.000000)">
                                                    <g id="🎨-color" transform="translate(0.000000, -0.000000)">
                                                        <mask id="mask-2" fill="white">
                                                            <use xlink:href="#path-1"></use>
                                                        </mask>
                                                        <use id="Mask" fill="#000000" fill-rule="nonzero" xlink:href="#path-1"></use>
                                                        <g id="Colour/Text/Dark-Support" mask="url(#mask-2)" fill="#99ACCC" fill-rule="nonzero">
                                                            <rect x="0" y="0" width="18" height="18"></rect>
                                                        </g>
                                                    </g>
                                                </g>
                                            </g>
                                        </g>
                                    </g>
                                </g>
                            </g>
                        </g>
                    </g>
                </g>
            </g>
        </g>
    </g>
</svg>