<?xml version="1.0" encoding="utf-8"?>
<!-- Generator: Adobe Illustrator 23.1.1, SVG Export Plug-In . SVG Version: 6.00 Build 0)  -->
<svg version="1.1" id="Layer_1" xmlns="http://www.w3.org/2000/svg" xmlns:xlink="http://www.w3.org/1999/xlink" x="0px" y="0px"
	 viewBox="0 0 18 18" style="enable-background:new 0 0 18 18;" xml:space="preserve">
<style type="text/css">
	.st0{filter:url(#Adobe_OpacityMaskFilter);}
	.st1{fill-rule:evenodd;clip-rule:evenodd;fill:#FFFFFF;}
	.st2{mask:url(#mask-2_1_);}
	.st3{fill:#FFFFFF;}
</style>
<title>Icon/Carousel</title>
<desc>Created with Sketch.</desc>
<g id="Page-1">
	<g transform="translate(-366.000000, -95.000000)">
		<g id="Navigation">
			<g id="Header">
				<g transform="translate(0.000000, 82.000000)">
					<g id="List" transform="translate(12.000000, 1.000000)">
						<g id="Stacked-Group-Copy-4" transform="translate(330.000000, 0.000000)">
							<g>
								<g id="Padding-Group-2">
									<g id="Stacked-Group" transform="translate(4.000000, 6.000000)">
										<g id="Icon" transform="translate(14.000000, 0.000000)">
											<g transform="translate(6.000000, 6.000000)">
												<g id="a-z">
												</g>
												<defs>
													<filter id="Adobe_OpacityMaskFilter" filterUnits="userSpaceOnUse" x="0" y="0" width="18" height="18">
														<feColorMatrix  type="matrix" values="1 0 0 0 0  0 1 0 0 0  0 0 1 0 0  0 0 0 1 0"/>
													</filter>
												</defs>
												<mask maskUnits="userSpaceOnUse" x="0" y="0" width="18" height="18" id="mask-2_1_">
													<g class="st0">
														<path id="path-1_1_" class="st1" d="M3.2,6.7h1.7L4.1,3.7L3.2,6.7z M0,0v11.7h8.1V5.4L11.6,0H0z M5.6,9.5L5.2,7.7H3
															L2.5,9.5H1.1l2.2-7.2h1.5L7,9.5H5.6z M9.9,6.6l0.6-0.9h1.1v-4L9,5.7V18h9V6.6H9.9z M15.9,15.8h-4.8v-0.9l3.2-5.3h-3.1
															V8.5h4.7v0.9l-3.2,5.3h3.3L15.9,15.8z"/>
													</g>
												</mask>
												<g class="st2">
													<rect y="0" class="st3" width="18" height="18"/>
												</g>
											</g>
										</g>
									</g>
								</g>
							</g>
						</g>
					</g>
				</g>
			</g>
		</g>
	</g>
</g>
</svg>
