<?xml version="1.0" encoding="UTF-8"?>
<svg width="18px" height="18px" viewBox="0 0 18 18" version="1.1" xmlns="http://www.w3.org/2000/svg" xmlns:xlink="http://www.w3.org/1999/xlink">
    <!-- Generator: Sketch 62 (91390) - https://sketch.com -->
    <title>Icon/Carousel</title>
    <desc>Created with Sketch.</desc>
    <defs>
        <path d="M6.29999999,2.09999998 L6.29927999,14.92536 C6.29927999,15.42216 6.92783999,16.05072 7.42463999,16.05072 L7.42463999,16.05072 L11.02464,16.05072 C11.02464,16.05072 10.62144,16.95072 10.12464,16.95072 L10.12464,16.95072 L1.12463997,16.95072 C0.627119965,16.95072 -0.000720037503,16.32216 -0.000720037503,15.82536 L-0.000720037503,15.82536 L-0.000720037503,2.77535998 C-0.000720037503,2.27855998 0.627839965,2.09999998 1.12463997,2.09999998 L1.12463997,2.09999998 L6.29999999,2.09999998 Z M17.1,0.29999997 C17.5968,0.29999997 18,0.703199972 18,1.19999997 L18,1.19999997 L18,14.25 C18,14.7468 17.5968,15.15 17.1,15.15 L17.1,15.15 L8.1,15.15 C7.60319999,15.15 7.19999999,14.7468 7.19999999,14.25 L7.19999999,14.25 L7.19999999,1.19999997 C7.19999999,0.703199972 7.60319999,0.29999997 8.1,0.29999997 L8.1,0.29999997 Z M4.68143998,3.67607998 C4.30343998,3.67607998 3.97727998,4.00799999 3.82607998,4.35575999 C3.67487998,4.00799999 3.34871998,3.67607998 2.97071997,3.67607998 C2.44799997,3.67607998 2.02535997,4.13255999 2.02535997,4.69631999 C2.02535997,5.84183999 3.09527998,6.14207999 3.82679998,7.27536 C4.51583998,6.14999999 5.62679999,5.80583999 5.62679999,4.69631999 C5.62679999,4.13327999 5.20343998,3.67607998 4.68143998,3.67607998 Z M11.88144,1.87535998 C11.50272,1.87535998 11.17728,2.20799998 11.02608,2.55503998 C10.87488,2.20727998 10.54872,1.87535998 10.17072,1.87535998 C9.64872,1.87535998 9.22536,2.33183998 9.22536,2.89559998 C9.22536,4.04183999 10.29528,4.34207999 11.0268,5.47535999 C11.71584,4.34927999 12.8268,4.00511999 12.8268,2.89559998 C12.8268,2.33255998 12.40344,1.87535998 11.88144,1.87535998 Z" id="path-1"></path>
    </defs>
    <g id="Page-1" stroke="none" stroke-width="1" fill="none" fill-rule="evenodd">
        <g id="2.0-Slots" transform="translate(-300.000000, -95.000000)">
            <g id="Navigation">
                <g id="Header">
                    <g id="Carousel/Top" transform="translate(0.000000, 82.000000)">
                        <g id="List" transform="translate(12.000000, 1.000000)">
                            <g id="Stacked-Group-Copy-3" transform="translate(264.000000, 0.000000)">
                                <g id="01">
                                    <g id="Icon" transform="translate(18.000000, 6.000000)">
                                        <g id="Icon/Carousel" transform="translate(6.000000, 6.000000)">
                                            <mask id="mask-2" fill="white">
                                                <use xlink:href="#path-1"></use>
                                            </mask>
                                            <g id="Combined-Shape" fill-rule="nonzero"></g>
                                            <g id="Colour/Text/Dark-Support" mask="url(#mask-2)" fill="#99ACCC" fill-rule="nonzero">
                                                <rect x="0" y="0" width="18" height="18"></rect>
                                            </g>
                                        </g>
                                    </g>
                                </g>
                            </g>
                        </g>
                    </g>
                </g>
            </g>
        </g>
    </g>
</svg>