<?xml version="1.0" encoding="utf-8"?>
<!-- Generator: Adobe Illustrator 23.1.1, SVG Export Plug-In . SVG Version: 6.00 Build 0)  -->
<svg version="1.1" id="Layer_1" xmlns="http://www.w3.org/2000/svg" xmlns:xlink="http://www.w3.org/1999/xlink" x="0px" y="0px"
	 viewBox="0 0 18 18" style="enable-background:new 0 0 18 18;" xml:space="preserve">
<style type="text/css">
	.st0{filter:url(#Adobe_OpacityMaskFilter);}
	.st1{fill-rule:evenodd;clip-rule:evenodd;fill:#FFFFFF;}
	.st2{mask:url(#mask-2_1_);}
	.st3{fill:#99ACCC;}
</style>
<title>Icon/Carousel</title>
<desc>Created with Sketch.</desc>
<g id="Page-1">
	<g transform="translate(-102.000000, -95.000000)">
		<g id="Navigation">
			<g id="Header">
				<g transform="translate(0.000000, 82.000000)">
					<g id="List" transform="translate(12.000000, 1.000000)">
						<g transform="translate(66.000000, 0.000000)">
							<g>
								<g id="Padding-Group-2">
									<g id="Stacked-Group" transform="translate(4.000000, 6.000000)">
										<g id="Icon" transform="translate(14.000000, 0.000000)">
											<g transform="translate(6.000000, 6.000000)">
												<g id="Combined-Shape">
												</g>
												<defs>
													<filter id="Adobe_OpacityMaskFilter" filterUnits="userSpaceOnUse" x="0" y="0" width="79" height="18">
														<feColorMatrix  type="matrix" values="1 0 0 0 0  0 1 0 0 0  0 0 1 0 0  0 0 0 1 0"/>
													</filter>
												</defs>
												<mask maskUnits="userSpaceOnUse" x="0" y="0" width="79" height="18" id="mask-2_1_">
													<g class="st0">
														<path id="path-1_1_" class="st1" d="M4.8,2c0.4,0,0.7,0.3,0.7,0.7l0,0v12.5c0,0.4-0.3,0.7-0.7,0.7l0,0H0.7
															C0.3,16,0,15.6,0,15.3l0,0V2.7C0,2.4,0.3,2,0.7,2l0,0H4.8z M10.9,2c0.4,0,0.7,0.3,0.7,0.7l0,0v12.5
															c0,0.4-0.3,0.7-0.7,0.7l0,0H6.8c-0.4,0-0.7-0.3-0.7-0.7l0,0V2.7C6.1,2.4,6.4,2,6.8,2l0,0H10.9z M17,2
															c0.4,0,0.7,0.3,0.7,0.7l0,0v12.5c0,0.4-0.3,0.7-0.7,0.7l0,0H13c-0.4,0-0.7-0.3-0.7-0.7l0,0V2.7C12.3,2.4,12.6,2,13,2
															l0,0H17z M4.8,7.6H0.7V9L2,8.3h1.5c-1.3,0.7-2,1.4-2,2.7l0,0h2c0,0-0.1-0.7-0.1-0.8c0-0.8,0.5-1.3,1.5-2.2l0,0V7.6z
															 M10.9,7.6H6.8V9l1.3-0.7h1.5c-1.3,0.7-2,1.4-2,2.7l0,0h2c0,0-0.1-0.7-0.1-0.8c0-0.8,0.5-1.3,1.5-2.2l0,0V7.6z
															 M17,7.6H13V9l1.3-0.7h1.5c-1.3,0.7-2,1.4-2,2.7l0,0h2c0,0-0.1-0.7-0.1-0.8c0-0.8,0.5-1.3,1.5-2.2l0,0V7.6z"/>
													</g>
												</mask>
												<g class="st2">
													<rect y="0" class="st3" width="79" height="18"/>
												</g>
											</g>
										</g>
									</g>
								</g>
							</g>
						</g>
					</g>
				</g>
			</g>
		</g>
	</g>
</g>
</svg>
