<?xml version="1.0" encoding="UTF-8"?>
<svg width="18px" height="18px" viewBox="0 0 18 18" version="1.1" xmlns="http://www.w3.org/2000/svg" xmlns:xlink="http://www.w3.org/1999/xlink">
    <!-- Generator: Sketch 62 (91390) - https://sketch.com -->
    <title>Icon/Carousel</title>
    <desc>Created with Sketch.</desc>
    <defs>
        <path d="M10.5527932,2.18058652 C10.5527932,2.18058652 5.93562521,5.66694574 5.67008386,5.88010138 C5.40454251,6.09235382 6.43961185,7.97552973 6.9435985,8.48132277 L6.9435985,10.307597 L4.71539948,10.307597 C4.71539948,10.307597 2.48629726,6.46447299 4.71539948,2.48315915 C6.9445017,-1.4981547 11.2961283,0.36153795 11.934692,0.943199955 C12.5732558,1.52486196 14.7463595,3.27797679 12.9417621,10.3066938 L10.288155,10.3066938 L10.288155,8.42803386 C10.288155,8.42803386 13.5785194,6.38679763 10.5527932,2.17968332 L10.5527932,2.18058652 Z M10.3161543,11.2406045 L9.29282657,12.3425108 L8.07802005,12.3217371 L7.05017632,11.2406045 L4.8210741,11.2406045 L7.95247499,16.7591679 L9.41566202,16.7591679 L12.5461597,11.2406045 L10.3170575,11.2406045 L10.3161543,11.2406045 Z M10.0749994,13.6819591 L7.21094625,13.6819591 L7.21094625,12.938624 L10.0768058,12.938624 L10.0768058,13.6819591 L10.0749994,13.6819591 Z M0.827115425,17.3173467 C0.827115425,17.3173467 2.0211483,18.0697138 4.68830343,17.9947481 L4.68830343,14.3313613 L3.29556614,11.9830364 C3.29556614,11.9830364 0.230098988,13.3378392 0.827115425,17.3173467 Z M16.5392152,17.3173467 C16.5392152,17.3173467 15.3451823,18.0697138 12.6780272,17.9947481 L12.6780272,14.3313613 L14.0707645,11.9830364 C14.0707645,11.9830364 17.1362316,13.3378392 16.5392152,17.3173467 Z" id="path-1"></path>
    </defs>
    <g id="Page-1" stroke="none" stroke-width="1" fill="none" fill-rule="evenodd">
        <g id="2.0-Slots" transform="translate(-234.000000, -95.000000)">
            <g id="Navigation">
                <g id="Header">
                    <g id="Carousel/Top" transform="translate(0.000000, 82.000000)">
                        <g id="List" transform="translate(12.000000, 1.000000)">
                            <g id="Stacked-Group-Copy-2" transform="translate(198.000000, 0.000000)">
                                <g id="01">
                                    <g id="Padding-Group-2">
                                        <g id="Stacked-Group" transform="translate(4.000000, 6.000000)">
                                            <g id="Icon" transform="translate(14.000000, 0.000000)">
                                                <g id="Icon/Carousel" transform="translate(6.000000, 6.000000)">
                                                    <mask id="mask-2" fill="white">
                                                        <use xlink:href="#path-1"></use>
                                                    </mask>
                                                    <use id="Mask" fill="#000000" fill-rule="nonzero" xlink:href="#path-1"></use>
                                                    <g id="Colour/Text/Dark-Support" mask="url(#mask-2)" fill="#99ACCC" fill-rule="nonzero">
                                                        <rect x="0" y="0" width="18" height="18"></rect>
                                                    </g>
                                                </g>
                                            </g>
                                        </g>
                                    </g>
                                </g>
                            </g>
                        </g>
                    </g>
                </g>
            </g>
        </g>
    </g>
</svg>