<?xml version="1.0" encoding="utf-8"?>
<!-- Generator: Adobe Illustrator 23.1.1, SVG Export Plug-In . SVG Version: 6.00 Build 0)  -->
<svg version="1.1" id="Layer_1" xmlns="http://www.w3.org/2000/svg" xmlns:xlink="http://www.w3.org/1999/xlink" x="0px" y="0px"
	 viewBox="0 0 18 18" style="enable-background:new 0 0 18 18;" xml:space="preserve">
<style type="text/css">
	.st0{fill:#FFFFFF;}
	.st1{filter:url(#Adobe_OpacityMaskFilter);}
	.st2{fill-rule:evenodd;clip-rule:evenodd;fill:#FFFFFF;}
	.st3{mask:url(#mask-2_1_);}
</style>
<title>Icon/Carousel</title>
<desc>Created with Sketch.</desc>
<g id="Page-1">
	<g transform="translate(-234.000000, -95.000000)">
		<g id="Navigation">
			<g id="Header">
				<g transform="translate(0.000000, 82.000000)">
					<g id="List" transform="translate(12.000000, 1.000000)">
						<g id="Stacked-Group-Copy-2" transform="translate(198.000000, 0.000000)">
							<g>
								<g id="Padding-Group-2">
									<g id="Stacked-Group" transform="translate(4.000000, 6.000000)">
										<g id="Icon" transform="translate(14.000000, 0.000000)">
											<g transform="translate(6.000000, 6.000000)">
												<g id="Mask">
													<path class="st0" d="M10.6,2.2c0,0-4.6,3.5-4.9,3.7C5.4,6.1,6.4,8,6.9,8.5v1.8H4.7c0,0-2.2-3.8,0-7.8s6.6-2.1,7.2-1.5
														c0.6,0.6,2.8,2.3,1,9.4h-2.7V8.4C10.3,8.4,13.6,6.4,10.6,2.2L10.6,2.2z M10.3,11.2l-1,1.1l-1.2,0l-1-1.1H4.8L8,16.8
														h1.5l3.1-5.5H10.3L10.3,11.2z M10.1,13.7H7.2v-0.7h2.9L10.1,13.7L10.1,13.7z M0.8,17.3c0,0,1.2,0.8,3.9,0.7v-3.7
														L3.3,12C3.3,12,0.2,13.3,0.8,17.3z M16.5,17.3c0,0-1.2,0.8-3.9,0.7v-3.7l1.4-2.3C14.1,12,17.1,13.3,16.5,17.3z"/>
												</g>
												<defs>
													<filter id="Adobe_OpacityMaskFilter" filterUnits="userSpaceOnUse" x="0" y="0" width="18" height="18">
														<feColorMatrix  type="matrix" values="1 0 0 0 0  0 1 0 0 0  0 0 1 0 0  0 0 0 1 0"/>
													</filter>
												</defs>
												<mask maskUnits="userSpaceOnUse" x="0" y="0" width="18" height="18" id="mask-2_1_">
													<g class="st1">
														<path id="path-1_1_" class="st2" d="M10.6,2.2c0,0-4.6,3.5-4.9,3.7C5.4,6.1,6.4,8,6.9,8.5v1.8H4.7c0,0-2.2-3.8,0-7.8
															s6.6-2.1,7.2-1.5c0.6,0.6,2.8,2.3,1,9.4h-2.7V8.4C10.3,8.4,13.6,6.4,10.6,2.2L10.6,2.2z M10.3,11.2l-1,1.1l-1.2,0
															l-1-1.1H4.8L8,16.8h1.5l3.1-5.5H10.3L10.3,11.2z M10.1,13.7H7.2v-0.7h2.9L10.1,13.7L10.1,13.7z M0.8,17.3
															c0,0,1.2,0.8,3.9,0.7v-3.7L3.3,12C3.3,12,0.2,13.3,0.8,17.3z M16.5,17.3c0,0-1.2,0.8-3.9,0.7v-3.7l1.4-2.3
															C14.1,12,17.1,13.3,16.5,17.3z"/>
													</g>
												</mask>
												<g class="st3">
													<rect y="0" class="st0" width="18" height="18"/>
												</g>
											</g>
										</g>
									</g>
								</g>
							</g>
						</g>
					</g>
				</g>
			</g>
		</g>
	</g>
</g>
</svg>
