<?xml version="1.0" encoding="utf-8"?>
<!-- Generator: Adobe Illustrator 23.1.1, SVG Export Plug-In . SVG Version: 6.00 Build 0)  -->
<svg version="1.1" id="Layer_1" xmlns="http://www.w3.org/2000/svg" xmlns:xlink="http://www.w3.org/1999/xlink" x="0px" y="0px"
	 viewBox="0 0 28.3 28.3" style="enable-background:new 0 0 28.3 28.3;" xml:space="preserve">
<style type="text/css">
	.st0{fill:#183060;}
	.st1{fill-rule:evenodd;clip-rule:evenodd;fill:#FFFFFF;stroke:#FFFFFF;stroke-width:0.6191;}
</style>
<rect class="st0" width="28.3" height="28.3"/>
<title>Icon/Roulette</title>
<desc>Created with Sketch.</desc>
<g id="Page-1_1_">
	<g transform="translate(-328.000000, -226.000000)">
		<g id="Navigation">
			<g id="Group-19" transform="translate(0.000000, 190.000000)">
				<g id="Search-Input" transform="translate(12.000000, 25.000000)">
					<g id="state">
						<g transform="translate(316.000000, 11.000000)">
							<g id="loupe" transform="translate(4.000000, 4.000000)">
								<g id="shape">
									<path class="st1" d="M9,12.4c-1.9,0-3.4-1.5-3.4-3.4S7.2,5.7,9,5.7s3.4,1.5,3.4,3.4S10.9,12.4,9,12.4 M15.3,14.8l-3.1-3.1
										c0.6-0.7,1-1.6,1-2.6c0-2.3-1.9-4.1-4.1-4.1S4.9,6.8,4.9,9s1.9,4.1,4.1,4.1c1,0,1.9-0.4,2.6-0.9l3.1,3.1
										c0.1,0.1,0.1,0.1,0.3,0.1s0.2,0,0.3-0.1C15.5,15.2,15.5,15,15.3,14.8"/>
								</g>
							</g>
						</g>
					</g>
				</g>
			</g>
		</g>
	</g>
</g>
</svg>
