<?xml version="1.0" encoding="UTF-8"?>
<svg width="54px" height="54px" viewBox="0 0 54 54" version="1.1" xmlns="http://www.w3.org/2000/svg" xmlns:xlink="http://www.w3.org/1999/xlink">
    <!-- Generator: Sketch 59.1 (86144) - https://sketch.com -->
    <title>i_call copy 4</title>
    <desc>Created with Sketch.</desc>
    <g id="Page-1" stroke="none" stroke-width="1" fill="none" fill-rule="evenodd">
        <g id="1.0-M-Search---Main-lobby" transform="translate(-161.000000, -699.000000)">
            <g id="Themes" transform="translate(12.000000, 413.000000)">
                <g transform="translate(0.000000, 30.000000)" id="i_call-copy-4">
                    <g transform="translate(149.000000, 256.000000)">
                        <rect id="bounding" x="0" y="0" width="54" height="54"></rect>
                        <g id="fire" transform="translate(11.700000, 3.600000)">
                            <g id="Group-4">
                                <path d="M0,32.3572229 C0,40.3989921 6.51904073,46.9180328 14.5608099,46.9180328 C22.6024874,46.9180328 29.1215281,40.3989921 29.1215281,32.3572229 C29.1215281,24.2679859 25.0768638,17.7965047 27.7906871,12.133993 C27.7906871,12.133993 23.4590164,12.9428708 21.0321995,19.4143521 C21.0321995,19.4143521 12.9428708,11.3250234 16.3226187,0 C16.3226187,0 8.08932864,3.2356948 8.95034785,13.7518404 C9.68875704,22.769358 8.08932864,24.2679859 8.08932864,24.2679859 C8.08932864,16.9875352 2.39730987,13.7518404 2.39730987,13.7518404 C4.04466432,22.6500469 0,25.0768638 0,32.3572229" id="Fill-1" fill="#ABC9FF"></path>
                                <path d="M25.0710907,35.8056067 C25.0710907,41.8622482 20.3945907,47.0325788 14.3391405,46.9158335 C8.64043225,46.805961 4.40048995,42.4701666 4.8535422,36.806372 C5.05578458,34.2784797 6.97704137,30.1832319 10.1116608,26.0374922 L12.2014376,27.3014383 C12.133993,22.1782091 14.5608099,15.3696878 14.5608099,15.3696878 C16.1548317,22.54329 25.0710907,24.402692 25.0710907,35.8056067" id="Fill-3" fill="#78A6EC"></path>
                            </g>
                            <path d="M11.1396593,32.9131185 C10.4554006,37.2440579 9.08696069,38.8208776 9.08696069,41.5749155 C9.08696069,44.4622356 11.5376734,47.349474 14.5607977,47.349474 C17.6056249,47.349474 20.0429284,44.7249572 20.0345017,41.5127716 C20.0116918,32.8855626 15.2449789,28.5822609 15.2449789,28.5822609 C15.9292376,32.9131185 13.876539,35.0785882 13.876539,35.0785882 C13.0215257,33.72565 11.1396593,32.9131185 11.1396593,32.9131185" id="Fill-5" fill="#FFFFFE"></path>
                        </g>
                    </g>
                </g>
            </g>
        </g>
    </g>
</svg>