<?xml version="1.0" encoding="UTF-8"?>
<svg width="54px" height="66px" viewBox="0 0 54 66" version="1.1" xmlns="http://www.w3.org/2000/svg" xmlns:xlink="http://www.w3.org/1999/xlink">
    <!-- Generator: Sketch 59.1 (86144) - https://sketch.com -->
    <title>i_call copy 3</title>
    <desc>Created with Sketch.</desc>
    <defs>
        <path d="M12.5721,12.0393 C12.5721,12.0393 11.3751,10.4364 11.7441,13.3245 L11.7441,13.3245 C12.1122,16.2135 13.194,15.6798 13.194,15.6798 L13.194,15.6798 C14.0166,21.8439 18.3708,24.0336 18.3708,24.0336 L18.3708,24.0336 L18.5769,26.1756 C18.5769,26.1756 15.8274,27.0468 7.6023,29.6028 L7.6023,29.6028 C2.9169,31.0581 2.5101,36.1674 0.8739,41.9454 L0.8739,41.9454 L42.7419,41.9454 C41.1093,36.1674 40.6368,31.0554 35.955,29.5992 L35.955,29.5992 C27.7398,27.0441 24.993,26.1729 24.993,26.1729 L24.993,26.1729 L25.2,24.0309 C25.2,24.0309 29.5488,21.8412 30.3705,15.6789 L30.3705,15.6789 C30.3705,15.6789 31.4496,16.2108 31.8195,13.3227 L31.8195,13.3227 C32.1876,10.4337 30.9915,12.0384 30.9915,12.0384 L30.9915,12.0384 C30.9915,12.0384 34.4439,0.1773 21.8916,0.0477 L21.8916,0.0477 C21.8574,0.045 21.8223,0.0459 21.7872,0.0468 L21.7872,0.0468 C21.7521,0.0459 21.7197,0.045 21.6855,0.045 L21.6855,0.045 C9.1152,0.1773 12.5721,12.0393 12.5721,12.0393 L12.5721,12.0393 Z" id="path-1"></path>
        <path d="M8.5023,3.3174 C4.6791,4.5216 2.0376,9.4797 0.3078,14.4432 L0.3078,14.4432 C1.5354,16.4322 3.7341,17.7579 6.2424,17.7579 L6.2424,17.7579 L39.1023,17.7579 C41.6115,17.7579 43.8111,16.4313 45.0387,14.4414 L45.0387,14.4414 C43.3107,9.4779 40.6755,4.5189 36.855,3.3156 L36.855,3.3156 C33.3153,2.1996 30.7935,1.4031 29.0664,0.855 L29.0664,0.855 C28.4958,3.87 25.8768,6.1488 22.7286,6.1488 L22.7286,6.1488 C19.5732,6.1488 16.9497,3.8574 16.3872,0.8298 L16.3872,0.8298 C14.6565,1.3788 12.105,2.1843 8.5023,3.3174 L8.5023,3.3174 Z" id="path-3"></path>
        <path d="M0.2871,0.6786 C0.2871,0.6786 0.2925,0.6813 0.3033,0.6867 L0.3033,0.6867 L0.2871,0.5418 L0.2871,0.6786 Z M3.5316,1.5714 C2.0088,1.5714 0.4761,0.7785 0.3033,0.6867 L0.3033,0.6867 L0.3537,1.1403 C0.3537,1.1403 2.2212,3.5298 4.7673,3.5298 L4.7673,3.5298 C6.2883,3.5298 7.0461,2.97 7.0461,2.97 L7.0461,2.97 L7.2576,0.6759 C7.2576,0.6759 5.148,1.5714 3.5316,1.5714 L3.5316,1.5714 Z" id="path-5"></path>
        <path d="M1.9035,0.0459 C1.8684,0.0459 1.8342,0.045 1.7991,0.0477 L1.7991,0.0477 C1.2231,0.0531 0.6912,0.09 0.18,0.1431 L0.18,0.1431 C10.593,0.6003 7.5222,11.1537 6.7005,15.336 L6.7005,15.336 C5.0049,23.9751 1.9134,24.9138 1.9134,24.9138 L1.9134,24.9138 L1.8351,24.9138 C1.989,24.9246 2.1429,24.939 2.2914,24.939 L2.2914,24.939 C3.5406,24.939 4.7862,24.48 5.3442,24.2451 L5.3442,24.2451 C5.3442,24.2451 9.7596,21.9042 10.593,15.7239 L10.593,15.7239 C10.593,15.7239 11.6856,16.2567 12.0582,13.3605 L12.0582,13.3605 C12.4308,10.4634 11.2212,12.0717 11.2212,12.0717 L11.2212,12.0717 C11.2212,12.0717 14.7141,0.1773 2.0088,0.045 L2.0088,0.045 C1.971,0.045 1.9386,0.0459 1.9035,0.0459 L1.9035,0.0459 Z" id="path-7"></path>
        <path d="M9.4023,3.3174 C4.7169,4.7925 1.8081,11.9052 0.1728,17.7579 L0.1728,17.7579 L46.9719,17.7579 C45.3393,11.9052 42.4368,4.7907 37.755,3.3156 L37.755,3.3156 C34.2153,2.1996 31.6935,1.4031 29.9664,0.855 L29.9664,0.855 C29.3958,3.87 26.7201,2.8215 23.5719,2.8215 L23.5719,2.8215 C20.4165,2.8215 18.1602,3.8574 17.5977,0.8298 L17.5977,0.8298 C15.8661,1.3788 13.005,2.1843 9.4023,3.3174" id="path-9"></path>
        <path d="M9.4023,3.3174 C4.7169,4.7925 1.8081,11.9052 0.1728,17.7579 L0.1728,17.7579 L46.9719,17.7579 C45.3393,11.9052 42.4368,4.7907 37.755,3.3156 L37.755,3.3156 C34.2153,2.1996 31.6935,1.4031 29.9664,0.855 L29.9664,0.855 C29.3958,3.87 26.7201,2.8215 23.5719,2.8215 L23.5719,2.8215 C20.4165,2.8215 18.1602,3.8574 17.5977,0.8298 L17.5977,0.8298 C15.8661,1.3788 13.005,2.1843 9.4023,3.3174" id="path-11"></path>
        <path d="M9.4023,3.3174 C4.7169,4.7925 1.8081,11.9052 0.1728,17.7579 L0.1728,17.7579 L46.9719,17.7579 C45.3393,11.9052 42.4368,4.7907 37.755,3.3156 L37.755,3.3156 C34.2153,2.1996 31.6935,1.4031 29.9664,0.855 L29.9664,0.855 C29.3958,3.87 26.7201,2.8215 23.5719,2.8215 L23.5719,2.8215 C20.4165,2.8215 18.1602,3.8574 17.5977,0.8298 L17.5977,0.8298 C15.8661,1.3788 13.005,2.1843 9.4023,3.3174 L9.4023,3.3174 Z" id="path-13"></path>
        <path d="M9.4023,3.3174 C4.7169,4.7925 1.8081,11.9052 0.1728,17.7579 L0.1728,17.7579 L46.9719,17.7579 C45.3393,11.9052 42.4368,4.7907 37.755,3.3156 L37.755,3.3156 C34.2153,2.1996 31.6935,1.4031 29.9664,0.855 L29.9664,0.855 C29.3958,3.87 26.7201,2.8215 23.5719,2.8215 L23.5719,2.8215 C20.4165,2.8215 18.1602,3.8574 17.5977,0.8298 L17.5977,0.8298 C15.8661,1.3788 13.005,2.1843 9.4023,3.3174" id="path-15"></path>
    </defs>
    <g id="Page-1" stroke="none" stroke-width="1" fill="none" fill-rule="evenodd">
        <g id="1.0-M-Search---Main-lobby" transform="translate(-42.000000, -699.000000)">
            <g id="Themes" transform="translate(12.000000, 413.000000)">
                <g transform="translate(0.000000, 30.000000)" id="i_call-copy-3">
                    <g transform="translate(30.000000, 256.000000)">
                        <rect id="bounding" x="0" y="0" width="54" height="54"></rect>
                        <g id="Group-43" transform="translate(3.600000, 4.500000)">
                            <g id="Group-3" transform="translate(1.800000, 0.434340)">
                                <mask id="mask-2" fill="white">
                                    <use xlink:href="#path-1"></use>
                                </mask>
                                <g id="Clip-2"></g>
                                <polygon id="Fill-1" fill="#C4D7FF" mask="url(#mask-2)" points="-4.1049 46.9242 47.7207 46.9242 47.7207 -4.9347 -4.1049 -4.9347"></polygon>
                            </g>
                            <g id="Group-6" transform="translate(0.900000, 26.534340)">
                                <mask id="mask-4" fill="white">
                                    <use xlink:href="#path-3"></use>
                                </mask>
                                <g id="Clip-5"></g>
                                <polygon id="Fill-4" fill="#77A6EC" mask="url(#mask-4)" points="-5.7069 22.7358 51.0507 22.7358 51.0507 -4.149 -5.7069 -4.149"></polygon>
                            </g>
                            <g id="Group-9" transform="translate(19.800000, 23.834340)">
                                <mask id="mask-6" fill="white">
                                    <use xlink:href="#path-5"></use>
                                </mask>
                                <g id="Clip-8"></g>
                                <polygon id="Fill-7" fill="#98BFFF" mask="url(#mask-6)" points="-4.6917 8.5077 12.2364 8.5077 12.2364 -4.437 -4.6917 -4.437"></polygon>
                            </g>
                            <g id="Group-12" transform="translate(21.600000, 0.434340)">
                                <mask id="mask-8" fill="white">
                                    <use xlink:href="#path-7"></use>
                                </mask>
                                <g id="Clip-11"></g>
                                <polygon id="Fill-10" fill="#B2CEFF" mask="url(#mask-8)" points="-4.7988 29.916 17.1081 29.916 17.1081 -4.9347 -4.7988 -4.9347"></polygon>
                            </g>
                            <g id="Group-17" transform="translate(23.400000, 33.734340)" fill="#DCD2CD">
                                <path d="M0.62325,0.88686 C0.61695,0.88686 0.61065,0.88776 0.60435,0.88776 L0.60435,3.05046 C0.61065,3.05046 0.61695,3.05136 0.62325,3.05136 C1.21905,3.05136 1.70595,2.56536 1.70595,1.96866 C1.70595,1.37286 1.21905,0.88686 0.62325,0.88686" id="Fill-13"></path>
                                <path d="M0.62325,5.2164 C0.61695,5.2164 0.61065,5.2173 0.60435,5.2173 L0.60435,7.38 C0.61065,7.38 0.61695,7.3809 0.62325,7.3809 C1.21905,7.3809 1.70595,6.8949 1.70595,6.2991 C1.70595,5.7033 1.21905,5.2164 0.62325,5.2164" id="Fill-15"></path>
                            </g>
                            <g id="Group-33" transform="translate(0.000000, 26.534340)">
                                <g id="Group-20">
                                    <mask id="mask-10" fill="white">
                                        <use xlink:href="#path-9"></use>
                                    </mask>
                                    <g id="Clip-19"></g>
                                    <path d="M41.40891,33.30009 L6.62751,33.30009 C6.02991,33.30009 -6.30009,31.29939 -6.30009,30.70179 L3.65751,7.79949 C3.65751,5.52339 6.50601,3.62169 8.63631,2.82159 L18.44901,-0.01881 C18.57141,-0.06381 18.70101,-0.08811 18.83061,-0.08811 L29.20671,-0.08811 C29.33721,-0.08811 29.46591,-0.06381 29.58741,-0.01881 L38.98431,3.51369 C41.11461,4.31559 42.49161,6.30369 42.49161,8.57979 L42.49161,32.21739 C42.49161,32.81589 42.00651,33.30009 41.40891,33.30009" id="Fill-18" fill="#78A6EC" mask="url(#mask-10)"></path>
                                </g>
                                <g id="Group-23">
                                    <mask id="mask-12" fill="white">
                                        <use xlink:href="#path-11"></use>
                                    </mask>
                                    <g id="Clip-22"></g>
                                    <path d="M29.58768,-0.01809 C29.46618,-0.06399 29.33748,-0.08739 29.20698,-0.08739 L23.94648,-0.08739 L23.94648,33.29991 L41.40918,33.29991 C42.00678,33.29991 50.4,26.6811799 50.4,26.0835799 L43.48728,7.79931 C43.48728,5.52321 40.63878,3.62241 38.50848,2.82141 L29.58768,-0.01809 Z" id="Fill-21" fill="#528AE1" mask="url(#mask-12)"></path>
                                </g>
                                <g id="Group-26">
                                    <mask id="mask-14" fill="white">
                                        <use xlink:href="#path-13"></use>
                                    </mask>
                                    <g id="Clip-25"></g>
                                    <polygon id="Fill-24" fill="#FFFFFF" mask="url(#mask-14)" points="23.47038 0.6417 19.08558 2.5578 23.94648 29.1618 28.96128 2.5947"></polygon>
                                </g>
                                <g id="Group-29">
                                    <mask id="mask-16" fill="white">
                                        <use xlink:href="#path-15"></use>
                                    </mask>
                                    <g id="Clip-28"></g>
                                    <path d="M36.21186,12.69063 C36.05886,12.37023 35.75736,12.14613 35.40546,12.08943 L33.73326,11.82393 L35.88966,9.36513 C36.24426,8.95923 36.24696,8.35533 35.89596,7.94673 L29.94246,1.01853 C29.66796,0.69903 29.23146,0.56763 28.82556,0.68283 C28.41966,0.79803 28.11816,1.13913 28.05336,1.55673 L24.01866,27.29763 L19.98576,1.55673 C19.91916,1.13913 19.61856,0.79803 19.21176,0.68283 C18.80586,0.56763 18.37026,0.69903 18.09486,1.01853 L12.14136,7.94673 C11.78946,8.35533 11.79306,8.95923 12.14856,9.36513 L14.30406,11.82393 L12.63186,12.08943 C12.27996,12.14613 11.97846,12.37023 11.82456,12.69063 C11.67066,13.01103 11.68506,13.38723 11.86146,13.69593 L22.75416,32.75433 C22.95216,33.09993 23.31486,33.29973 23.69466,33.29973 L24.34266,33.29973 C24.72246,33.29973 25.08606,33.09993 25.28226,32.75433 L36.17586,13.69593 C36.35226,13.38633 36.36576,13.01103 36.21186,12.69063" id="Fill-27" fill="#C4D7FF" mask="url(#mask-16)"></path>
                                </g>
                                <g id="Group-32" fill="#8CB8FF">
                                    <path d="M36.21186,12.69063 C36.05886,12.37023 35.75736,12.14613 35.40546,12.08943 L33.73326,11.82393 L35.88966,9.36513 C36.24426,8.95923 36.24696,8.35533 35.89596,7.94673 L29.94246,1.01853 C29.66796,0.69903 29.23146,0.56763 28.82556,0.68283 C28.41966,0.79803 28.11816,1.13913 28.05336,1.55673 L24.01866,27.29763 L24.01866,33.29973 L24.34266,33.29973 C24.72246,33.29973 25.08606,33.09993 25.28316,32.75433 L36.17586,13.69593 C36.35226,13.38633 36.36576,13.01103 36.21186,12.69063" id="Fill-30"></path>
                                </g>
                            </g>
                            <g id="Group-42" transform="translate(17.100000, 25.634340)">
                                <path d="M2.18502,7.13502 C1.91682,7.13502 1.64592,7.07112 1.39122,6.94062 C0.79992,6.63822 0.44622,6.06132 0.44622,5.39622 L0.44622,1.85472 C0.44622,1.19052 0.79992,0.61362 1.39122,0.31122 C1.98252,0.00882 2.65662,0.06102 3.19572,0.44982 L6.61752,2.92302 C6.84342,3.08592 6.97662,3.34782 6.97662,3.62592 C6.97662,3.90402 6.84342,4.16502 6.61752,4.32792 L3.19572,6.80202 C2.88972,7.02342 2.53962,7.13502 2.18502,7.13502" id="Fill-34" fill="#578EE5"></path>
                                <path d="M11.65266,7.13502 C11.29806,7.13502 10.94796,7.02342 10.64196,6.80202 L7.21926,4.32792 C6.99426,4.16502 6.86106,3.90402 6.86106,3.62592 C6.86106,3.34782 6.99426,3.08592 7.21926,2.92302 L10.64196,0.44982 C11.18016,0.06102 11.85516,0.00882 12.44646,0.31122 C13.03776,0.61272 13.39146,1.19052 13.39146,1.85472 L13.39146,5.39622 C13.39146,6.06132 13.03776,6.63822 12.44646,6.94062 C12.19176,7.07112 11.92086,7.13502 11.65266,7.13502" id="Fill-36" fill="#3472D2"></path>
                                <path d="M6.91884,5.52663 C6.44004,5.52663 6.05214,5.13783 6.05214,4.65993 L6.05214,3.08853 C6.05214,2.60973 6.44004,2.22183 6.91884,2.22183 C7.39674,2.22183 7.78554,2.60973 7.78554,3.08853 L7.78554,4.65993 C7.78554,5.13783 7.39674,5.52663 6.91884,5.52663" id="Fill-38" fill="#4C85DF"></path>
                                <path d="M6.91884,2.22192 L6.90714,2.22192 L6.90714,5.52582 C6.91074,5.52582 6.91434,5.52672 6.91884,5.52672 C7.39674,5.52672 7.78554,5.13792 7.78554,4.66002 L7.78554,3.08862 C7.78554,2.60982 7.39674,2.22192 6.91884,2.22192" id="Fill-40" fill="#2863BF"></path>
                            </g>
                        </g>
                    </g>
                </g>
            </g>
        </g>
    </g>
</svg>