<?xml version="1.0" encoding="UTF-8"?>
<svg width="54px" height="54px" viewBox="0 0 54 54" version="1.1" xmlns="http://www.w3.org/2000/svg" xmlns:xlink="http://www.w3.org/1999/xlink">
    <!-- Generator: Sketch 59.1 (86144) - https://sketch.com -->
    <title>i_call copy 37</title>
    <desc>Created with Sketch.</desc>
    <defs>
        <path d="M3.6,3.6 L3.6,6.3 L5.5472,5.4 L9,5.4 C6.3,7.2 4.5064,8.164 4.4368,10.8 L4.4368,10.8 L8.1144,10.8 C8.1144,10.8 8.1,9.0704 8.1,9 L8.1,9 C8.1,7.4736 9.0648,6.856 10.8,5.26 L10.8,5.26 L10.8,3.6 L3.6,3.6 Z" id="path-1"></path>
        <path d="M3.6,3.6 L3.6,6.3 L5.5472,5.4 L9,5.4 C6.3,7.2 4.5064,8.1632 4.4368,10.8 L4.4368,10.8 L8.1144,10.8 C8.1144,10.8 8.1,9.0704 8.1,9 L8.1,9 C8.1,7.4736 9.0648,6.8552 10.8,5.26 L10.8,5.26 L10.8,3.6 L3.6,3.6 Z" id="path-3"></path>
        <path d="M8.8794,5.64365725 C8.82617143,5.55494296 8.71971429,5.51328582 8.6202,5.54105725 C8.51991429,5.56805725 8.45125714,5.65908582 8.45125714,5.76245725 C8.45125714,6.04402868 8.22214286,6.27314296 7.94057143,6.27314296 C7.65977143,6.27314296 7.43065714,6.04402868 7.43065714,5.76245725 L7.43065714,3.83002868 C7.43065714,3.73745725 7.37434286,3.65337153 7.28794286,3.61788582 C7.20231429,3.58162868 7.1028,3.60168582 7.03722857,3.66725725 C7.011,3.69348582 6.39617143,4.3114001 5.77362857,5.2456001 C5.40642857,5.79717153 5.11328571,6.34334296 4.90268571,6.87022868 C4.63577143,7.53751439 4.5,8.17702868 4.5,8.76948582 C4.5,10.258343 5.71191429,11.4694858 7.2,11.4694858 C8.68885714,11.4694858 9.9,10.258343 9.9,8.76948582 C9.9,7.8160001 9.55671429,6.76454296 8.8794,5.64365725" id="path-5"></path>
        <path d="M3.6,3.6333 L3.6,6.3333 L5.5472,5.4333 L9,5.4333 C6.3,7.2333 4.5072,8.1965 4.436,10.8333 L4.436,10.8333 L8.1144,10.8333 C8.1144,10.8333 8.1,9.1037 8.1,9.0333 L8.1,9.0333 C8.1,7.5069 9.0648,6.8885 10.8,5.2933 L10.8,5.2933 L10.8,3.6333 L3.6,3.6333 Z" id="path-7"></path>
    </defs>
    <g id="Page-1" stroke="none" stroke-width="1" fill="none" fill-rule="evenodd">
        <g id="1.0-M-Search---Main-lobby" transform="translate(-161.000000, -457.000000)">
            <g id="Themes" transform="translate(12.000000, 413.000000)">
                <g transform="translate(0.000000, 30.000000)" id="i_call-copy-37">
                    <g transform="translate(149.000000, 14.000000)">
                        <rect id="bounding" x="0" y="0" width="54" height="54"></rect>
                        <g id="Group-9" transform="translate(3.600000, 7.200000)">
                            <path d="M14.4,37.9833 C14.4,38.8908 13.59,39.6333 12.6,39.6333 L1.8,39.6333 C0.81,39.6333 0,38.8908 0,37.9833 L0,1.6833 C0,0.7758 0.81,0.0333 1.8,0.0333 L12.6,0.0333 C13.59,0.0333 14.4,0.7758 14.4,1.6833 L14.4,37.9833 Z" id="Fill-1" fill="#528AE1"></path>
                            <g id="Group" transform="translate(0.000000, 25.200000)">
                                <path d="M2,14.4 L12.4,14.4 C13.5045695,14.4 14.4,13.5045695 14.4,12.4 L14.4,0 L14.4,0 L0,0 L0,12.4 C1.3527075e-16,13.5045695 0.8954305,14.4 2,14.4 Z" id="Fill-5" fill="#759DEB"></path>
                                <mask id="mask-2" fill="white">
                                    <use xlink:href="#path-1"></use>
                                </mask>
                                <use id="Clip-14" fill="#FFFFFF" xlink:href="#path-1"></use>
                            </g>
                            <g id="Group-5">
                                <path d="M14.4,14.4 L0,14.4 L0,1.8 C0,0.8064 0.8064,0 1.8,0 L12.6,0 C13.5936,0 14.4,0.8064 14.4,1.8 L14.4,14.4 Z" id="Fill-3" fill="#759DEB"></path>
                                <path d="M8.8794,5.67695725 C8.82617143,5.58824296 8.71971429,5.54658582 8.6202,5.57435725 C8.51991429,5.60135725 8.45125714,5.69238582 8.45125714,5.79575725 C8.45125714,6.07732868 8.22214286,6.30644296 7.94057143,6.30644296 C7.65977143,6.30644296 7.43065714,6.07732868 7.43065714,5.79575725 L7.43065714,3.86332868 C7.43065714,3.77075725 7.37434286,3.68667153 7.28794286,3.65118582 C7.20231429,3.61492868 7.1028,3.63498582 7.03722857,3.70055725 C7.011,3.72678582 6.39617143,4.3447001 5.77362857,5.2789001 C5.40642857,5.83047153 5.11328571,6.37664296 4.90268571,6.90352868 C4.63577143,7.57081439 4.5,8.21032868 4.5,8.80278582 C4.5,10.291643 5.71191429,11.5027858 7.2,11.5027858 C8.68885714,11.5027858 9.9,10.291643 9.9,8.80278582 C9.9,7.8493001 9.55671429,6.79784296 8.8794,5.67695725" id="Fill-32" fill="#FFFFFF"></path>
                            </g>
                        </g>
                        <g id="Group-8" transform="translate(8.100000, 7.200000)">
                            <path d="M26.1,37.9833 C26.1,38.8908 25.29,39.6333 24.3,39.6333 L13.5,39.6333 C12.51,39.6333 11.7,38.8908 11.7,37.9833 L11.7,1.6833 C11.7,0.7758 12.51,0.0333 13.5,0.0333 L24.3,0.0333 C25.29,0.0333 26.1,0.7758 26.1,1.6833 L26.1,19.446375 L26.1,37.9833 Z" id="Fill-7" fill="#78A6EC"></path>
                            <rect id="Rectangle" fill="#FFFFFF" fill-rule="nonzero" opacity="0.200000003" x="0" y="18" width="5.4" height="3.6" rx="1.8"></rect>
                            <rect id="Rectangle" fill="#FFFFFF" fill-rule="nonzero" opacity="0.200000003" x="16.2" y="18" width="5.4" height="3.6" rx="1.8"></rect>
                            <rect id="Rectangle" fill="#FFFFFF" fill-rule="nonzero" opacity="0.200000003" x="32.4" y="17.1" width="5.4" height="5.4" rx="2"></rect>
                            <g id="Group-2" transform="translate(11.700000, 25.200000)">
                                <path d="M12.6,14.4 L1.8,14.4 C0.8064,14.4 0,13.5936 0,12.6 L0,8.8817842e-16 L14.4,8.8817842e-16 L14.4,12.6 C14.4,13.5936 13.5936,14.4 12.6,14.4" id="Fill-10" fill="#8BB4F2"></path>
                                <mask id="mask-4" fill="white">
                                    <use xlink:href="#path-3"></use>
                                </mask>
                                <use id="Clip-17" fill="#FFFFFF" xlink:href="#path-3"></use>
                            </g>
                            <g id="Group-4" transform="translate(11.700000, 0.000000)">
                                <path d="M14.4,14.4 L0,14.4 L0,1.8 C0,0.8064 0.8064,0 1.8,0 L12.6,0 C13.5936,0 14.4,0.8064 14.4,1.8 L14.4,14.4 Z" id="Fill-8" fill="#9ABFFF"></path>
                                <mask id="mask-6" fill="white">
                                    <use xlink:href="#path-5"></use>
                                </mask>
                                <use id="Mask" fill="#FFFFFF" xlink:href="#path-5"></use>
                            </g>
                        </g>
                        <g id="Group-7" transform="translate(36.000000, 7.200000)">
                            <path d="M14.4,37.95 C14.4,38.8575 13.59,39.6 12.6,39.6 L1.8,39.6 C0.81,39.6 0,38.8575 0,37.95 L0,1.65 C0,0.7425 0.81,0 1.8,0 L12.6,0 C13.59,0 14.4,0.7425 14.4,1.65 L14.4,37.95 Z" id="Fill-9" fill="#8CB8FF"></path>
                            <g id="Group-3" transform="translate(0.000000, 25.200000)">
                                <path d="M2,14.4 L12.4,14.4 C13.5045695,14.4 14.4,13.5045695 14.4,12.4 L14.4,0 L14.4,0 L0,0 L0,12.4 C1.3527075e-16,13.5045695 0.8954305,14.4 2,14.4 Z" id="Fill-5" fill="#9FCAFC"></path>
                                <mask id="mask-8" fill="white">
                                    <use xlink:href="#path-7"></use>
                                </mask>
                                <use id="Clip-20" fill="#FFFFFF" xlink:href="#path-7"></use>
                            </g>
                            <g id="Group-6">
                                <path d="M14.4,14.4 L0,14.4 L0,1.8 C0,0.8064 0.8064,0 1.8,0 L12.6,0 C13.5936,0 14.4,0.8064 14.4,1.8 L14.4,14.4 Z" id="Fill-30" fill="#9FCAFC"></path>
                                <path d="M9.12546,5.67695725 C9.07223143,5.58824296 8.96577429,5.54658582 8.86626,5.57435725 C8.76597429,5.60135725 8.69731714,5.69238582 8.69731714,5.79575725 C8.69731714,6.07732868 8.46820286,6.30644296 8.18663143,6.30644296 C7.90583143,6.30644296 7.67671714,6.07732868 7.67671714,5.79575725 L7.67671714,3.86332868 C7.67671714,3.77075725 7.62040286,3.68667153 7.53400286,3.65118582 C7.44837429,3.61492868 7.34886,3.63498582 7.28328857,3.70055725 C7.25706,3.72678582 6.64223143,4.3447001 6.01968857,5.2789001 C5.65248857,5.83047153 5.35934571,6.37664296 5.14874571,6.90352868 C4.88183143,7.57081439 4.74606,8.21032868 4.74606,8.80278582 C4.74606,10.291643 5.95797429,11.5027858 7.44606,11.5027858 C8.93491714,11.5027858 10.14606,10.291643 10.14606,8.80278582 C10.14606,7.8493001 9.80277429,6.79784296 9.12546,5.67695725" id="Fill-40" fill="#FFFFFF"></path>
                            </g>
                            <rect id="Rectangle" fill="#FFFFFF" fill-rule="nonzero" opacity="0.200000003" x="4.5" y="18" width="5.4" height="3.6" rx="1.8"></rect>
                        </g>
                    </g>
                </g>
            </g>
        </g>
    </g>
</svg>