<?xml version="1.0" encoding="UTF-8"?>
<svg width="54px" height="54px" viewBox="0 0 54 54" version="1.1" xmlns="http://www.w3.org/2000/svg" xmlns:xlink="http://www.w3.org/1999/xlink">
    <!-- Generator: Sketch 59.1 (86144) - https://sketch.com -->
    <title>i_call copy 3</title>
    <desc>Created with Sketch.</desc>
    <defs>
        <polygon id="path-1" points="0.262557642 0.56187 35.1 0.56187 35.1 41.3994816 0.262557642 41.3994816"></polygon>
        <polygon id="path-3" points="0 0.56178 34.8378019 0.56178 34.8378019 41.3993916 0 41.3993916"></polygon>
        <polygon id="path-5" points="0.52800026 0.3348 26.424515 0.3348 26.424515 36.1057797 0.52800026 36.1057797"></polygon>
    </defs>
    <g id="Page-1" stroke="none" stroke-width="1" fill="none" fill-rule="evenodd">
        <g id="1.0-M-Search---Main-lobby" transform="translate(-284.000000, -699.000000)">
            <g id="Themes" transform="translate(12.000000, 413.000000)">
                <g transform="translate(0.000000, 30.000000)" id="i_call-copy-3">
                    <g transform="translate(272.000000, 256.000000)">
                        <rect id="bounding" x="0" y="0" width="54" height="54"></rect>
                        <g id="Group-22" transform="translate(2.700000, 6.300000)">
                            <g id="Group-3" transform="translate(13.500000, 0.565560)">
                                <mask id="mask-2" fill="white">
                                    <use xlink:href="#path-1"></use>
                                </mask>
                                <g id="Clip-2"></g>
                                <path d="M34.99983,10.26567 L24.06843,40.29147 C23.74983,41.16267 22.78953,41.61267 21.91563,41.30037 L13.95333,38.40057 L11.64123,37.55907 L10.80873,37.25667 L10.79973,37.25667 L7.02423,35.87787 L1.36593,33.81777 C0.49563,33.50007 0.04743,32.53887 0.36423,31.66857 C0.36423,31.66677 0.36513,31.66587 0.36513,31.66497 L4.49343,20.32227 L6.65433,14.37687 L10.79973,3.00087 L11.04363,2.34477 L11.29563,1.63827 C11.49723,1.07217 11.99043,0.65997 12.58263,0.56187 L13.15503,0.56187 C13.25493,0.57807 13.35303,0.60417 13.44933,0.63837 L23.41233,4.26177 L25.09443,4.87557 L33.99093,8.11287 C34.86393,8.42877 35.31483,9.39267 34.99983,10.26567" id="Fill-1" fill="#528AE1" mask="url(#mask-2)"></path>
                            </g>
                            <g id="Group-6" transform="translate(0.000000, 0.565560)">
                                <mask id="mask-4" fill="white">
                                    <use xlink:href="#path-3"></use>
                                </mask>
                                <g id="Clip-5"></g>
                                <path d="M33.73416,33.81768 L28.07586,35.87778 L24.30036,37.25658 L23.46786,37.55898 L13.18446,41.30028 C12.31056,41.61258 11.35026,41.16258 11.03076,40.29138 L0.10026,10.26558 C-0.21474,9.39258 0.23616,8.42958 1.10916,8.11278 L11.68776,4.26168 L21.65076,0.63828 C21.74706,0.60408 21.84516,0.57798 21.94506,0.56178 L22.51746,0.56178 C23.10966,0.65988 23.60286,1.07208 23.80446,1.63818 L24.30036,3.00078 L28.44576,14.37678 L30.60576,20.32218 L33.70896,28.83978 L34.73496,31.66488 C35.05356,32.53428 34.60716,33.49818 33.73776,33.81588 C33.73686,33.81678 33.73506,33.81678 33.73416,33.81768" id="Fill-4" fill="#9FCAFC" mask="url(#mask-4)"></path>
                            </g>
                            <g id="Group-11" transform="translate(10.800000, 0.565560)">
                                <mask id="mask-6" fill="white">
                                    <use xlink:href="#path-5"></use>
                                </mask>
                                <g id="Clip-10"></g>
                                <path d="M2.92149,0.33489 L24.77889,0.79749 C25.70679,0.81729 26.44479,1.58589 26.42409,2.51469 L25.74819,34.45929 C25.72929,35.38809 24.95979,36.12519 24.03099,36.10539 L2.17449,35.64189 C1.24569,35.62299 0.50859,34.85349 0.52839,33.92559 L1.20519,1.98099 C1.22409,1.05219 1.99359,0.31509 2.92149,0.33489" id="Fill-9" fill="#68A6FF" mask="url(#mask-6)"></path>
                            </g>
                            <path d="M6.07059,12.70728 L7.27209,12.14748 L5.82759,10.61838 L6.07059,12.70728 Z M8.06859,12.99168 L6.21279,13.85658 L6.34869,15.02838 L4.96629,15.67188 L4.48389,9.75528 L6.03009,9.03348 L10.25199,13.20768 L8.87859,13.84848 L8.06859,12.99168 Z" id="Fill-12" fill="#FFFFFF" opacity="0.600000024"></path>
                            <path d="M43.614,11.21922 L42.1704,12.74832 L43.3701,13.30812 L43.614,11.21922 Z M40.563,14.44842 L39.1896,13.80852 L43.4115,9.63522 L44.9577,10.35612 L44.4744,16.27272 L43.0938,15.62922 L43.2279,14.45832 L41.3739,13.59342 L40.563,14.44842 Z" id="Fill-14" fill="#FFFFFF" opacity="0.5"></path>
                            <path d="M15.8616,7.45227 L17.1873,7.45227 L16.524,5.45607 L15.8616,7.45227 Z M17.5518,8.55477 L15.5052,8.55477 L15.1317,9.67257 L13.608,9.67257 L15.6708,4.10607 L17.3772,4.10607 L19.44,9.67257 L17.9244,9.67257 L17.5518,8.55477 Z" id="Fill-16" fill="#FFFFFF"></path>
                            <path d="M32.07564,33.73641 L32.73804,31.74021 L31.41324,31.74021 L32.07564,33.73641 Z M33.47604,29.51991 L34.99164,29.51991 L32.92884,35.08731 L31.22334,35.08731 L29.16054,29.51991 L30.68424,29.51991 L31.05684,30.63861 L33.10344,30.63861 L33.47604,29.51991 Z" id="Fill-18" fill="#FFFFFF"></path>
                            <path d="M24.27624,24.53076 L23.39244,23.64696 C20.10654,20.73996 17.95824,18.78156 17.95824,16.38036 C17.95824,14.42196 19.47474,12.90546 21.43404,12.90546 C22.50774,12.90546 23.58234,13.41126 24.27624,14.23296 C24.97104,13.41126 26.04564,12.90546 27.11934,12.90546 C29.07864,12.90546 30.59514,14.42196 30.59514,16.38036 C30.59514,18.78156 28.44684,20.73996 25.16094,23.64696 L24.27624,24.53076 Z" id="Fill-20" fill="#FFFFFF"></path>
                        </g>
                    </g>
                </g>
            </g>
        </g>
    </g>
</svg>