<?xml version="1.0" encoding="UTF-8"?>
<svg width="54px" height="54px" viewBox="0 0 54 54" version="1.1" xmlns="http://www.w3.org/2000/svg" xmlns:xlink="http://www.w3.org/1999/xlink">
    <!-- Generator: Sketch 59.1 (86144) - https://sketch.com -->
    <title>i_call copy 3</title>
    <desc>Created with Sketch.</desc>
    <g id="Page-1" stroke="none" stroke-width="1" fill="none" fill-rule="evenodd">
        <g id="1.0-M-Search---Main-lobby" transform="translate(-39.000000, -578.000000)" fill-rule="nonzero">
            <g id="Themes" transform="translate(12.000000, 413.000000)">
                <g transform="translate(0.000000, 30.000000)" id="i_call-copy-3">
                    <g transform="translate(27.000000, 135.000000)">
                        <g id="like-(1)" transform="translate(4.500000, 9.000000)">
                            <path d="M18.5835498,16.8194971 C19.1450391,15.6692285 20.5692627,13.3685596 23.5819775,11.6156689 C27.7862256,9.1781543 29.3200049,3.80992676 29.5254053,2.31714844 C29.7308057,0.810791016 33.3324316,-0.955810547 33.7706543,3.90563965 C34.208877,8.76708984 31.250874,12.0538916 31.250874,12.0538916 L41.4532617,12.0538916 C44.5756641,11.6156689 45.0685986,16.7237842 42.00104,16.7784961 L41.0286182,16.792207 L41.0011963,17.0523193 L41.5901074,17.0523193 C44.0688867,17.0523193 44.0688867,21.9139014 41.5901074,21.9139014 L41.4668408,21.9139014 C43.3292871,22.5302344 43.2060205,26.6795068 40.9053516,26.6795068 L40.2480176,26.6795068 L40.2480176,26.6932178 C41.8227979,27.0355957 41.6586621,28.5008203 41.6586621,29.7196436 C41.6586621,31.7739111 36.3178564,32.8557568 34.9757666,33.2254248 C31.1001855,34.2798486 25.9922021,33.1021582 21.6511084,32.7050684 L18.9259277,32.3901123 L12.9689209,32.3901123 L12.9689209,16.8194971 L18.5972607,16.8194971 L18.5835498,16.8194971 Z" id="Path" fill="#ABC9FF"></path>
                            <polygon id="Path" fill="#FFFFFF" points="10.9283643 15.7239404 17.8166602 15.7239404 17.8166602 33.5130908 10.9283643 33.5130908"></polygon>
                            <polygon id="Path" fill="#78A6EC" points="0.945219727 14.3271387 13.2154541 14.3271387 13.2154541 34.8961816 0.945219727 34.8961816"></polygon>
                        </g>
                    </g>
                </g>
            </g>
        </g>
    </g>
</svg>